<svg width="133" height="40" viewBox="0 0 133 40" fill="none" xmlns="http://www.w3.org/2000/svg">
<circle cx="20" cy="20" r="20" fill="#4C4C4C"/>
<path d="M13.07 29.34L13.25 27.54H13.43C14.21 28.22 15.09 28.75 16.07 29.13C17.05 29.51 18.02 29.7 18.98 29.7C20.34 29.7 21.44 29.33 22.28 28.59C23.12 27.83 23.54 26.82 23.54 25.56C23.54 24.86 23.38 24.21 23.06 23.61C22.76 23.01 22.25 22.4 21.53 21.78C20.83 21.16 19.86 20.49 18.62 19.77C17.76 19.27 16.94 18.75 16.16 18.21C15.38 17.65 14.74 17.01 14.24 16.29C13.74 15.55 13.49 14.67 13.49 13.65C13.49 12.13 14.04 10.91 15.14 9.99C16.24 9.05 17.69 8.58 19.49 8.58C20.29 8.58 21.15 8.67 22.07 8.85C22.99 9.01 23.7 9.22 24.2 9.48L24.05 11.16H23.87C22.73 9.92 21.27 9.3 19.49 9.3C18.21 9.3 17.18 9.63 16.4 10.29C15.62 10.93 15.23 11.8 15.23 12.9C15.23 13.72 15.44 14.43 15.86 15.03C16.3 15.61 16.86 16.14 17.54 16.62C18.22 17.08 18.95 17.53 19.73 17.97C20.63 18.49 21.5 19.04 22.34 19.62C23.2 20.2 23.9 20.9 24.44 21.72C25 22.52 25.28 23.53 25.28 24.75C25.28 25.87 25.02 26.86 24.5 27.72C23.98 28.56 23.24 29.22 22.28 29.7C21.34 30.18 20.24 30.42 18.98 30.42C18.18 30.42 17.24 30.32 16.16 30.12C15.08 29.92 14.05 29.66 13.07 29.34Z" fill="white"/>
<path d="M45.92 19.6C45.92 18.368 46.136 17.224 46.568 16.168C47.016 15.096 47.632 14.168 48.416 13.384C49.216 12.584 50.144 11.968 51.2 11.536C52.272 11.088 53.424 10.864 54.656 10.864C55.888 10.864 57.032 11.088 58.088 11.536C59.16 11.968 60.088 12.584 60.872 13.384C61.672 14.168 62.288 15.096 62.72 16.168C63.168 17.224 63.392 18.368 63.392 19.6C63.392 20.832 63.168 21.984 62.72 23.056C62.288 24.112 61.672 25.04 60.872 25.84C60.088 26.624 59.16 27.24 58.088 27.688C57.032 28.12 55.888 28.336 54.656 28.336C53.424 28.336 52.272 28.12 51.2 27.688C50.144 27.24 49.216 26.624 48.416 25.84C47.632 25.04 47.016 24.112 46.568 23.056C46.136 21.984 45.92 20.832 45.92 19.6ZM47.744 19.6C47.744 21.232 48.032 22.664 48.608 23.896C49.184 25.112 49.992 26.064 51.032 26.752C52.072 27.424 53.28 27.76 54.656 27.76C56.032 27.76 57.24 27.424 58.28 26.752C59.32 26.064 60.128 25.104 60.704 23.872C61.28 22.64 61.568 21.216 61.568 19.6C61.568 17.984 61.28 16.568 60.704 15.352C60.128 14.12 59.32 13.16 58.28 12.472C57.24 11.784 56.032 11.44 54.656 11.44C53.28 11.44 52.072 11.784 51.032 12.472C50.008 13.144 49.2 14.096 48.608 15.328C48.032 16.544 47.744 17.968 47.744 19.6ZM68.1847 11.2H69.8167V21.328C69.8167 23.264 70.2887 24.776 71.2327 25.864C72.1927 26.936 73.5367 27.472 75.2647 27.472C76.3527 27.472 77.2967 27.264 78.0967 26.848C78.9127 26.416 79.5367 25.824 79.9687 25.072C80.4167 24.32 80.6247 23.456 80.5927 22.48L80.1847 11.2H81.8167L81.4087 22.48C81.3447 24.4 80.7687 25.856 79.6807 26.848C78.6087 27.84 77.0727 28.336 75.0727 28.336C72.9127 28.336 71.2247 27.712 70.0087 26.464C68.7927 25.2 68.1847 23.472 68.1847 21.28V11.2ZM87.5731 11.2H90.7891C92.4851 11.2 93.7971 11.56 94.7251 12.28C95.6691 12.984 96.1411 13.976 96.1411 15.256C96.1411 16.248 95.8451 17.072 95.2531 17.728C94.6771 18.384 93.8371 18.824 92.7331 19.048V19.192C93.7891 19.4 94.6531 19.896 95.3251 20.68C95.9971 21.464 96.5011 22.432 96.8371 23.584C97.1411 24.64 97.4371 25.464 97.7251 26.056C98.0291 26.632 98.3571 27.048 98.7091 27.304C99.0771 27.56 99.5091 27.744 100.005 27.856V28H99.0211C98.3171 28 97.7331 27.872 97.2691 27.616C96.8211 27.36 96.4371 26.928 96.1171 26.32C95.7971 25.712 95.4931 24.872 95.2051 23.8C94.7411 22.152 94.1251 20.984 93.3571 20.296C92.5891 19.608 91.6531 19.264 90.5491 19.264H90.4051V18.832H90.5491C93.1251 18.832 94.4131 17.648 94.4131 15.28C94.4131 12.944 93.2051 11.776 90.7891 11.776H89.2051V28H87.5731V11.2ZM101.202 28L107.658 11.2H109.146L115.602 28H113.85L110.874 20.128H105.426L102.954 28H101.202ZM107.826 12.448L105.594 19.552H110.658L107.97 12.448H107.826ZM115.831 11.2H117.631L124.183 26.128H124.327L129.823 11.2H131.623L123.991 28.336H123.463L115.831 11.2Z" fill="white"/>
</svg>
