<svg width="140" height="40" viewBox="0 0 140 40" fill="none" xmlns="http://www.w3.org/2000/svg">
<circle cx="35" cy="35" r="35" fill="#4C4C4C"/>
<g clip-path="url(#clip0_15_4)">
<rect width="40" height="40" rx="20" fill="#4C4C4C"/>
<path d="M35.232 47.432C28.848 47.432 25.488 44.216 25.488 41.96C25.488 40.808 26.256 40.184 27.36 40.184C30.336 40.184 28.8 46.04 35.232 46.04C38.304 46.04 40.704 44.552 40.704 41.816C40.704 34.76 26.016 39.512 26.016 30.056C26.016 26.36 29.76 23.48 35.04 23.48C40.992 23.48 44.4 26.552 44.4 29.144C44.4 30.104 43.632 30.824 42.672 30.824C39.936 30.824 41.136 24.968 35.232 24.968C32.448 24.968 30.288 26.744 30.288 29.144C30.288 36.056 44.928 31.352 44.928 40.952C44.928 44.552 41.184 47.432 35.232 47.432Z" fill="white"/>
<path d="M79.84 35.2C79.84 32.736 80.272 30.448 81.136 28.336C82.032 26.192 83.264 24.336 84.832 22.768C86.432 21.168 88.288 19.936 90.4 19.072C92.544 18.176 94.848 17.728 97.312 17.728C99.776 17.728 102.064 18.176 104.176 19.072C106.32 19.936 108.176 21.168 109.744 22.768C111.344 24.336 112.576 26.192 113.44 28.336C114.336 30.448 114.784 32.736 114.784 35.2C114.784 37.664 114.336 39.968 113.44 42.112C112.576 44.224 111.344 46.08 109.744 47.68C108.176 49.248 106.32 50.48 104.176 51.376C102.064 52.24 99.776 52.672 97.312 52.672C94.848 52.672 92.544 52.24 90.4 51.376C88.288 50.48 86.432 49.248 84.832 47.68C83.264 46.08 82.032 44.224 81.136 42.112C80.272 39.968 79.84 37.664 79.84 35.2ZM83.488 35.2C83.488 38.464 84.064 41.328 85.216 43.792C86.368 46.224 87.984 48.128 90.064 49.504C92.144 50.848 94.56 51.52 97.312 51.52C100.064 51.52 102.48 50.848 104.56 49.504C106.64 48.128 108.256 46.208 109.408 43.744C110.56 41.28 111.136 38.432 111.136 35.2C111.136 31.968 110.56 29.136 109.408 26.704C108.256 24.24 106.64 22.32 104.56 20.944C102.48 19.568 100.064 18.88 97.312 18.88C94.56 18.88 92.144 19.568 90.064 20.944C88.016 22.288 86.4 24.192 85.216 26.656C84.064 29.088 83.488 31.936 83.488 35.2ZM124.369 18.4H127.633V38.656C127.633 42.528 128.577 45.552 130.465 47.728C132.385 49.872 135.073 50.944 138.529 50.944C140.705 50.944 142.593 50.528 144.193 49.696C145.825 48.832 147.073 47.648 147.937 46.144C148.833 44.64 149.249 42.912 149.185 40.96L148.369 18.4H151.633L150.817 40.96C150.689 44.8 149.537 47.712 147.361 49.696C145.217 51.68 142.145 52.672 138.145 52.672C133.825 52.672 130.449 51.424 128.017 48.928C125.585 46.4 124.369 42.944 124.369 38.56V18.4ZM163.146 18.4H169.578C172.97 18.4 175.594 19.12 177.45 20.56C179.338 21.968 180.282 23.952 180.282 26.512C180.282 28.496 179.69 30.144 178.506 31.456C177.354 32.768 175.674 33.648 173.466 34.096V34.384C175.578 34.8 177.306 35.792 178.65 37.36C179.994 38.928 181.002 40.864 181.674 43.168C182.282 45.28 182.874 46.928 183.45 48.112C184.058 49.264 184.714 50.096 185.418 50.608C186.154 51.12 187.018 51.488 188.01 51.712V52H186.042C184.634 52 183.466 51.744 182.538 51.232C181.642 50.72 180.874 49.856 180.234 48.64C179.594 47.424 178.986 45.744 178.41 43.6C177.482 40.304 176.25 37.968 174.714 36.592C173.178 35.216 171.306 34.528 169.098 34.528H168.81V33.664H169.098C174.25 33.664 176.826 31.296 176.826 26.56C176.826 21.888 174.41 19.552 169.578 19.552H166.41V52H163.146V18.4ZM190.404 52L203.316 18.4H206.292L219.204 52H215.7L209.748 36.256H198.852L193.908 52H190.404ZM203.652 20.896L199.188 35.104H209.316L203.94 20.896H203.652ZM219.661 18.4H223.261L236.365 48.256H236.653L247.645 18.4H251.245L235.981 52.672H234.925L219.661 18.4Z" fill="white"/>
</g>
<defs>
<clipPath id="clip0_15_4">
<rect width="140" height="40" fill="white"/>
</clipPath>
</defs>
</svg>
