<svg width="80" height="80" viewBox="0 0 80 80" fill="none" xmlns="http://www.w3.org/2000/svg">
<circle cx="20" cy="20" r="20" fill="#4C4C4C"/>
<path d="M13.07 29.34L13.25 27.54H13.43C14.21 28.22 15.09 28.75 16.07 29.13C17.05 29.51 18.02 29.7 18.98 29.7C20.34 29.7 21.44 29.33 22.28 28.59C23.12 27.83 23.54 26.82 23.54 25.56C23.54 24.86 23.38 24.21 23.06 23.61C22.76 23.01 22.25 22.4 21.53 21.78C20.83 21.16 19.86 20.49 18.62 19.77C17.76 19.27 16.94 18.75 16.16 18.21C15.38 17.65 14.74 17.01 14.24 16.29C13.74 15.55 13.49 14.67 13.49 13.65C13.49 12.13 14.04 10.91 15.14 9.99C16.24 9.05 17.69 8.58 19.49 8.58C20.29 8.58 21.15 8.67 22.07 8.85C22.99 9.01 23.7 9.22 24.2 9.48L24.05 11.16H23.87C22.73 9.92 21.27 9.3 19.49 9.3C18.21 9.3 17.18 9.63 16.4 10.29C15.62 10.93 15.23 11.8 15.23 12.9C15.23 13.72 15.44 14.43 15.86 15.03C16.3 15.61 16.86 16.14 17.54 16.62C18.22 17.08 18.95 17.53 19.73 17.97C20.63 18.49 21.5 19.04 22.34 19.62C23.2 20.2 23.9 20.9 24.44 21.72C25 22.52 25.28 23.53 25.28 24.75C25.28 25.87 25.02 26.86 24.5 27.72C23.98 28.56 23.24 29.22 22.28 29.7C21.34 30.18 20.24 30.42 18.98 30.42C18.18 30.42 17.24 30.32 16.16 30.12C15.08 29.92 14.05 29.66 13.07 29.34Z" fill="white"/>
</svg>
