<svg width="12" height="12" viewBox="0 0 12 12" fill="none" xmlns="http://www.w3.org/2000/svg">
<path d="M4.68001 3.81001C5.01601 3.81001 5.28601 3.54001 5.28601 3.20401C5.28601 2.86801 5.01601 2.59801 4.68001 2.59801C4.34401 2.59801 4.07401 2.86801 4.07401 3.20401C4.07401 3.54001 4.34401 3.81001 4.68001 3.81001Z" fill="white"/>
<path fill-rule="evenodd" clip-rule="evenodd" d="M5.89801 5.13001C5.89801 4.48201 5.35201 4.01401 4.68001 4.01401C4.00801 4.01401 3.46201 4.48201 3.46201 5.13001V5.43601C3.46201 5.49001 3.48601 5.54401 3.52201 5.58001C3.55801 5.61601 3.61201 5.64001 3.66601 5.64001H5.69401C5.74801 5.64001 5.80201 5.61601 5.83801 5.58001C5.87401 5.54401 5.89801 5.49001 5.89801 5.43601V5.13001ZM3.45001 6.90001C3.45001 6.78066 3.49742 6.6662 3.58181 6.58181C3.66621 6.49742 3.78066 6.45001 3.90001 6.45001H8.10001C8.21936 6.45001 8.33382 6.49742 8.41821 6.58181C8.5026 6.6662 8.55001 6.78066 8.55001 6.90001C8.55001 7.01936 8.5026 7.13381 8.41821 7.21821C8.33382 7.3026 8.21936 7.35001 8.10001 7.35001H3.90001C3.78066 7.35001 3.66621 7.3026 3.58181 7.21821C3.49742 7.13381 3.45001 7.01936 3.45001 6.90001ZM3.45001 8.70001C3.45001 8.58066 3.49742 8.4662 3.58181 8.38181C3.66621 8.29742 3.78066 8.25001 3.90001 8.25001H8.10001C8.21936 8.25001 8.33382 8.29742 8.41821 8.38181C8.5026 8.4662 8.55001 8.58066 8.55001 8.70001C8.55001 8.81936 8.5026 8.93381 8.41821 9.01821C8.33382 9.1026 8.21936 9.15001 8.10001 9.15001H3.90001C3.78066 9.15001 3.66621 9.1026 3.58181 9.01821C3.49742 8.93381 3.45001 8.81936 3.45001 8.70001Z" fill="white"/>
<path fill-rule="evenodd" clip-rule="evenodd" d="M1.5 1.5C1.5 0.838803 2.0388 0.300003 2.7 0.300003H6.714C7.0512 0.300003 7.3692 0.442803 7.593 0.678603L7.5966 0.682803L10.1838 3.504C10.3992 3.7338 10.5 4.0344 10.5 4.32V10.5C10.5 11.1612 9.9612 11.7 9.3 11.7H2.7C2.0388 11.7 1.5 11.1612 1.5 10.5V1.5ZM6.7134 1.5H2.7V10.5H9.3V4.3152L6.7224 1.5042L6.7206 1.5036L6.7134 1.5Z" fill="white"/>
<path fill-rule="evenodd" clip-rule="evenodd" d="M6.71401 0.300003C6.87314 0.300003 7.02576 0.363217 7.13828 0.475739C7.2508 0.588261 7.31401 0.740873 7.31401 0.900003V3.72H9.90001C9.97881 3.72 10.0568 3.73552 10.1296 3.76568C10.2024 3.79583 10.2686 3.84002 10.3243 3.89574C10.38 3.95145 10.4242 4.0176 10.4543 4.09039C10.4845 4.16319 10.5 4.24121 10.5 4.32C10.5 4.3988 10.4845 4.47682 10.4543 4.54961C10.4242 4.62241 10.38 4.68855 10.3243 4.74427C10.2686 4.79998 10.2024 4.84418 10.1296 4.87433C10.0568 4.90448 9.97881 4.92 9.90001 4.92H6.71401C6.55488 4.92 6.40227 4.85679 6.28975 4.74427C6.17723 4.63175 6.11401 4.47913 6.11401 4.32V0.900003C6.11401 0.740873 6.17723 0.588261 6.28975 0.475739C6.40227 0.363217 6.55488 0.300003 6.71401 0.300003Z" fill="white"/>
</svg>
