<svg width="142" height="142" viewBox="0 0 142 142" fill="none" xmlns="http://www.w3.org/2000/svg">
<circle cx="71" cy="71" r="71" fill="#FF0000"/>
<path d="M45.056 77.84C45.056 79.216 44.752 80.688 44.144 82.256C43.536 83.792 42.56 85.216 41.216 86.528C39.872 87.84 38.144 88.912 36.032 89.744C33.92 90.576 31.616 90.992 29.12 90.992C26.624 90.992 24.384 90.592 22.4 89.792C18.688 88.32 16.272 85.744 15.152 82.064C14.864 81.072 14.72 80.144 14.72 79.28C14.72 76.496 15.568 73.888 17.264 71.456L17.696 71.792C16.64 73.68 16.112 75.504 16.112 77.264C16.112 79.44 16.656 81.36 17.744 83.024C18.832 84.688 20.288 85.984 22.112 86.912C23.936 87.84 25.792 88.304 27.68 88.304C29.6 88.304 31.216 88 32.528 87.392C33.84 86.784 34.8 85.968 35.408 84.944C36.016 83.92 36.32 82.848 36.32 81.728C36.32 80.608 35.92 79.472 35.12 78.32C34.32 77.136 33.136 76.112 31.568 75.248L23.744 70.64C19.776 68.304 17.792 65.296 17.792 61.616C17.792 58.32 18.944 55.776 21.248 53.984C23.168 52.48 25.776 51.728 29.072 51.728C31.184 51.728 33.872 51.888 37.136 52.208H40.88L39.872 60.032H39.392C39.392 58.272 38.704 56.848 37.328 55.76C35.952 54.672 34.192 54.128 32.048 54.128C29.904 54.128 28.256 54.496 27.104 55.232C25.952 55.968 25.328 56.944 25.232 58.16C25.136 58.992 25.36 59.696 25.904 60.272C26.384 60.784 26.864 61.184 27.344 61.472C27.824 61.728 28.256 61.968 28.64 62.192C29.024 62.416 29.296 62.56 29.456 62.624L38.432 67.76C40.448 68.88 42.016 70.272 43.136 71.936C44.416 73.824 45.056 75.792 45.056 77.84ZM93.1471 94.208C90.6831 95.648 88.1711 96.368 85.6111 96.368C83.0511 96.368 80.6191 95.888 78.3151 94.928C76.0431 93.968 73.8031 92.288 71.5951 89.888C69.4191 87.52 67.6271 84.624 66.2191 81.2L64.9231 78.032H54.6511L52.7311 82.496C52.5711 82.912 52.4911 83.248 52.4911 83.504C52.4911 83.76 52.5391 84.048 52.6351 84.368C52.7631 84.656 53.0031 84.928 53.3551 85.184C53.7391 85.408 54.1391 85.52 54.5551 85.52H54.9871V86H44.2831V85.52H44.7151C45.4511 85.52 46.1711 85.312 46.8751 84.896C47.6111 84.448 48.2191 83.792 48.6991 82.928L58.4911 61.424C57.5311 58.768 56.7311 56.992 56.0911 56.096C55.4831 55.168 54.9711 54.464 54.5551 53.984C53.7871 53.088 52.8271 52.432 51.6751 52.016C51.2271 51.856 50.6991 51.776 50.0911 51.776C49.4831 51.776 48.7951 51.92 48.0271 52.208L47.9311 51.728C50.4911 50.224 52.9391 49.472 55.2751 49.472C58.7311 49.472 61.8511 51.168 64.6351 54.56C66.0431 56.32 67.3071 58.448 68.4271 60.944L76.1071 78.56C77.5151 81.792 78.5551 83.968 79.2271 85.088C79.8991 86.176 80.4911 87.104 81.0031 87.872C81.5471 88.672 82.0751 89.36 82.5871 89.936C83.0991 90.512 83.6591 91.072 84.2671 91.616C85.3231 92.576 86.6511 93.296 88.2511 93.776C88.9231 94 89.6591 94.112 90.4591 94.112C91.2911 94.112 92.1551 93.984 93.0511 93.728L93.1471 94.208ZM55.7071 75.632H63.9631L60.9391 68.192C60.6831 67.616 60.3791 66.8 60.0271 65.744L55.7071 75.632ZM74.4342 50.192C76.7062 48.976 78.9302 48.368 81.1063 48.368C83.3143 48.368 85.3303 48.832 87.1543 49.76C90.8023 51.648 93.9223 54.736 96.5143 59.024L105.106 72.992L119.362 51.728H119.794L125.218 79.808C126.306 85.568 127.922 89.568 130.066 91.808C131.762 93.568 133.922 94.448 136.546 94.448C136.77 94.448 137.01 94.448 137.266 94.448V94.928C135.282 95.76 133.218 96.176 131.074 96.176C126.818 96.176 123.122 94.512 119.986 91.184C117.362 88.432 115.522 84.544 114.466 79.52L112.258 69.392L104.05 81.584C103.506 82.352 103.026 83.28 102.61 84.368C102.194 85.456 102.002 86.384 102.034 87.152H101.602L89.9383 67.184L87.5383 83.312V83.504C87.5383 84.016 87.7143 84.496 88.0663 84.944C88.4503 85.36 88.8983 85.568 89.4103 85.568H90.1303V86H79.6182V85.52H80.3863C81.2503 85.52 82.0023 85.264 82.6423 84.752C83.3143 84.208 83.7303 83.488 83.8903 82.592L87.2023 62C85.5703 59.152 83.7623 56.624 81.7783 54.416C79.5062 51.92 77.2342 50.672 74.9622 50.672C74.8342 50.672 74.7062 50.672 74.5782 50.672L74.4342 50.192Z" fill="white"/>
</svg>
