<svg width="322" height="322" viewBox="0 0 322 322" fill="none" xmlns="http://www.w3.org/2000/svg">
<circle cx="161" cy="161" r="160" stroke="white" stroke-width="2"/>
<path d="M162.95 204.3C137.47 204.3 126.29 189.35 126.29 181.42C126.29 178.43 127.98 176.22 131.23 176.22C140.59 176.61 137.34 199.23 163.47 199.23C175.82 199.23 184.27 192.08 184.27 181.81C184.27 149.44 128.76 173.88 128.76 134.88C128.76 120.45 140.46 109.53 161.13 109.53C183.23 109.53 194.8 121.75 194.8 130.72C194.8 133.84 192.98 135.92 189.47 135.92C179.72 135.92 184.66 114.6 160.74 114.6C147.61 114.6 140.59 122.27 140.59 132.15C140.59 162.44 196.23 139.82 196.23 179.08C196.23 194.68 181.15 204.3 162.95 204.3Z" fill="white"/>
<path d="M160.308 273.552C160.969 273.552 161.694 273.627 162.484 273.776C163.273 273.925 164.062 274.171 164.852 274.512C165.641 274.875 166.366 275.365 167.028 275.984C167.689 276.603 168.222 277.371 168.628 278.288C169.012 279.227 169.246 280.379 169.332 281.744C169.396 283.131 169.428 284.645 169.428 286.288V295.152C169.897 295.365 170.409 295.504 170.964 295.568C171.518 295.632 171.945 295.664 172.244 295.664V296.624H163.828V295.664C164.126 295.664 164.553 295.632 165.108 295.568C165.641 295.504 166.153 295.365 166.644 295.152V286.448C166.644 286.043 166.644 285.52 166.644 284.88C166.644 284.261 166.633 283.6 166.612 282.896C166.59 282.213 166.548 281.552 166.484 280.912C166.398 280.272 166.292 279.739 166.164 279.312C165.908 278.587 165.502 277.904 164.948 277.264C164.372 276.645 163.668 276.144 162.836 275.76C161.982 275.397 161.033 275.216 159.988 275.216C158.473 275.216 157.108 275.536 155.892 276.176C154.676 276.816 153.865 277.819 153.46 279.184C153.204 280.08 153.076 281.189 153.076 282.512C153.054 283.856 153.044 285.285 153.044 286.8V295.152C153.513 295.365 154.025 295.504 154.58 295.568C155.134 295.632 155.561 295.664 155.86 295.664V296.624H148.436V295.664C148.734 295.664 149.161 295.632 149.716 295.568C150.249 295.504 150.761 295.365 151.252 295.152V286.576C151.252 285.659 151.262 284.688 151.284 283.664C151.284 282.661 151.326 281.701 151.412 280.784C151.476 279.867 151.614 279.088 151.828 278.448C152.148 277.467 152.649 276.656 153.332 276.016C153.993 275.376 154.74 274.875 155.572 274.512C156.404 274.149 157.236 273.904 158.068 273.776C158.9 273.627 159.646 273.552 160.308 273.552Z" fill="white"/>
<path d="M115.138 265.392L114.721 266.257C114.452 266.127 114.054 265.971 113.526 265.788C112.999 265.605 112.477 265.507 111.962 265.496L103.423 283.227C103.753 283.623 104.155 283.97 104.626 284.268C105.098 284.567 105.469 284.781 105.738 284.91L105.322 285.775L97.739 282.124L98.1555 281.259C98.4246 281.388 98.8229 281.545 99.3504 281.728C99.8587 281.901 100.38 281.998 100.915 282.019L109.454 264.288C109.104 263.883 108.703 263.536 108.25 263.247C107.778 262.949 107.408 262.735 107.139 262.605L107.555 261.74L115.138 265.392Z" fill="white"/>
<path d="M69.8342 239.29L67.9534 240.422L61.7721 233.441L63.653 232.309L69.8342 239.29Z" fill="white"/>
<path d="M49.6771 185.027C49.8243 185.672 49.9129 186.396 49.9429 187.198C49.973 188.001 49.9094 188.825 49.7523 189.671C49.5744 190.521 49.2574 191.337 48.8014 192.12C48.3454 192.902 47.7154 193.593 46.9112 194.192C46.0815 194.776 45.0106 195.261 43.6985 195.648C42.3609 196.019 40.8913 196.387 39.2898 196.752L30.6481 198.725C30.5445 199.23 30.5232 199.76 30.5843 200.315C30.6453 200.87 30.709 201.293 30.7755 201.584L29.8396 201.798L27.9668 193.593L28.9028 193.379C28.9692 193.67 29.0954 194.079 29.2812 194.606C29.4623 195.111 29.7114 195.58 30.0286 196.011L38.5143 194.074C38.9095 193.984 39.4191 193.867 40.043 193.725C40.6462 193.587 41.2885 193.43 41.9702 193.252C42.631 193.08 43.2662 192.891 43.8759 192.686C44.4809 192.46 44.9771 192.238 45.3646 192.018C46.0148 191.607 46.5901 191.06 47.0907 190.377C47.5657 189.678 47.8978 188.88 48.087 187.983C48.2507 187.07 48.2162 186.104 47.9836 185.085C47.6466 183.609 47.0308 182.349 46.1362 181.306C45.2417 180.263 44.0838 179.695 42.6625 179.604C41.732 179.554 40.622 179.676 39.3325 179.97C38.0174 180.248 36.6216 180.556 35.1449 180.893L27.0023 182.752C26.8987 183.257 26.8775 183.787 26.9385 184.342C26.9995 184.897 27.0633 185.32 27.1297 185.611L26.1938 185.825L24.5418 178.587L25.4777 178.373C25.5442 178.664 25.6703 179.073 25.8561 179.6C26.0372 180.105 26.2863 180.574 26.6035 181.005L34.9645 179.096C35.8588 178.892 36.8075 178.687 37.8106 178.479C38.7881 178.256 39.7336 178.084 40.6469 177.963C41.5555 177.822 42.3455 177.784 43.0169 177.849C44.0448 177.943 44.9467 178.251 45.7226 178.774C46.4937 179.277 47.1486 179.893 47.6873 180.623C48.226 181.354 48.6503 182.11 48.9603 182.893C49.291 183.671 49.5299 184.382 49.6771 185.027Z" fill="white"/>
<path d="M49.8733 132.998L48.9374 132.784C49.0038 132.493 49.0652 132.08 49.1215 131.546C49.1825 130.991 49.1612 130.461 49.0577 129.956L39.7812 133.353L46.5726 140.844C46.8897 140.413 47.1389 139.945 47.3199 139.439C47.5058 138.912 47.6319 138.504 47.6984 138.212L48.6343 138.426L47.0464 145.383L46.1105 145.169C46.1627 144.941 46.2074 144.601 46.2447 144.15C46.282 143.699 46.2418 143.252 46.124 142.809L38.0942 133.985L26.9916 138.049C26.7143 138.401 26.4898 138.809 26.3182 139.273C26.1514 139.717 26.0395 140.063 25.9825 140.313L25.0466 140.099L26.9692 131.676L27.9051 131.889C27.8386 132.181 27.7749 132.604 27.7139 133.159C27.6576 133.693 27.6788 134.223 27.7776 134.749L36.2681 131.632L30.0562 124.765C29.7438 125.176 29.4947 125.644 29.3089 126.17C29.1278 126.676 29.004 127.075 28.9376 127.366L28.0017 127.152L29.5824 120.226L30.5184 120.44C30.4662 120.669 30.4214 121.009 30.3841 121.46C30.3516 121.89 30.3942 122.326 30.512 122.769L37.9551 130.999L49.8125 126.649C50.1154 126.28 50.3503 125.874 50.5171 125.431C50.684 124.988 50.7982 124.631 50.8599 124.361L51.7959 124.574L49.8733 132.998Z" fill="white"/>
<path d="M63.8492 89.1127L62.3275 87.5308L67.7581 79.9511L69.2798 81.533L63.8492 89.1127Z" fill="white"/>
<path d="M100.79 62.4159L100.373 61.551C100.642 61.4214 101.013 61.2074 101.485 60.9091C101.957 60.6108 102.358 60.2637 102.688 59.8678L94.1216 42.0791C93.634 42.1482 93.1499 42.2985 92.6694 42.5299C92.2081 42.752 91.8475 42.9375 91.5877 43.0863L91.0847 42.263C92.3084 41.4606 93.5748 40.6731 94.8839 39.9006C96.203 39.0996 97.5449 38.3706 98.9096 37.7134C101.389 36.5193 103.799 35.8443 106.139 35.6882C108.47 35.5129 110.563 35.9256 112.418 36.9264C114.283 37.8987 115.757 39.5093 116.84 41.7581C117.581 43.2958 117.914 44.9228 117.841 46.6392C117.768 48.3556 117.343 50.0048 116.565 51.5867C115.798 53.1401 114.728 54.5077 113.356 55.6896C112.805 56.168 112.043 56.7006 111.071 57.2873C110.118 57.8647 109.189 58.3709 108.286 58.806L100.79 62.4159ZM104.877 57.9968C105.47 57.9483 106.101 57.8337 106.772 57.6528C107.442 57.4719 108.143 57.2056 108.873 56.8539C110.757 55.9468 112.248 54.8144 113.346 53.4567C114.464 52.0898 115.125 50.5873 115.331 48.9492C115.536 47.311 115.223 45.6271 114.39 43.8972C113.566 42.1866 112.493 40.8444 111.172 39.8706C109.87 38.8875 108.414 38.2743 106.805 38.031C105.187 37.7684 103.506 37.8675 101.763 38.3282C100.01 38.7697 98.2761 39.5693 96.5605 40.727L104.877 57.9968Z" fill="white"/>
<path d="M153.038 47V46.04C153.336 46.04 153.763 46.008 154.318 45.944C154.872 45.88 155.384 45.7413 155.854 45.528V25.848C155.384 25.6347 154.872 25.496 154.318 25.432C153.763 25.368 153.336 25.336 153.038 25.336V24.376L167.918 24.376L168.078 28.728L167.054 28.792C167.032 28.4293 166.968 27.992 166.862 27.48C166.776 26.968 166.627 26.4773 166.414 26.008L158.638 26.008V34.424H165.326C165.432 33.9973 165.507 33.5813 165.55 33.176C165.592 32.7707 165.614 32.44 165.614 32.184H166.638V38.584H165.614C165.614 38.3067 165.592 37.9333 165.55 37.464C165.507 36.9733 165.4 36.504 165.23 36.056H158.638V45.368L167.054 45.368C167.331 45.0053 167.587 44.5787 167.822 44.088C168.078 43.5973 168.291 43.1493 168.462 42.744C168.632 42.3173 168.728 42.04 168.75 41.912L169.774 42.168L168.718 47L153.038 47Z" fill="white"/>
<path d="M210.323 57.6702C209.42 57.2352 208.582 56.7371 207.811 56.1761C207.049 55.6436 206.431 55.1566 205.957 54.7151C205.483 54.2737 205.235 54.0007 205.215 53.896L206.987 47.9301L208.022 48.2153C207.61 50.0534 207.562 51.6523 207.878 53.0121C208.194 54.3718 209.131 55.4266 210.687 56.1763C211.956 56.7872 213.142 56.9795 214.245 56.7532C215.358 56.5077 216.178 55.8372 216.706 54.7416C217.076 53.9728 217.179 53.1936 217.015 52.4041C216.86 51.5953 216.542 50.7795 216.062 49.9565C215.602 49.1427 215.079 48.3108 214.494 47.4608C213.937 46.6008 213.433 45.7304 212.981 44.8498C212.557 43.9592 212.296 43.0518 212.196 42.1278C212.097 41.2037 212.283 40.2515 212.755 39.2713C213.329 38.0796 214.108 37.2475 215.094 36.7748C216.088 36.283 217.197 36.0948 218.42 36.2102C219.652 36.3064 220.893 36.6553 222.143 37.257C223.027 37.6827 223.787 38.1438 224.425 38.64C225.071 39.117 225.558 39.4819 225.886 39.7347L224.271 44.7107L223.264 44.3679C223.694 43.0829 223.777 41.9272 223.513 40.9006C223.25 39.874 222.513 39.0691 221.302 38.486C220.572 38.1343 219.82 37.9498 219.047 37.9327C218.293 37.9248 217.603 38.0782 216.978 38.3928C216.373 38.7166 215.917 39.1957 215.611 39.83C215.25 40.5796 215.157 41.3395 215.33 42.1098C215.523 42.8894 215.864 43.681 216.353 44.4848C216.852 45.2694 217.384 46.0821 217.95 46.9229C218.515 47.7637 219.015 48.6436 219.449 49.5627C219.882 50.4818 220.13 51.4418 220.193 52.4428C220.274 53.453 220.047 54.5155 219.51 55.6303C218.964 56.7643 218.203 57.5818 217.228 58.0829C216.262 58.5648 215.182 58.7669 213.988 58.6892C212.794 58.6116 211.573 58.2719 210.323 57.6702Z" fill="white"/>
<path d="M247.853 85.7978L248.604 85.1992C248.79 85.4327 249.081 85.7463 249.477 86.1401C249.873 86.5338 250.3 86.8477 250.76 87.0816L266.146 74.8113C266.02 74.3114 265.81 73.8246 265.514 73.3511C265.218 72.8775 264.977 72.524 264.791 72.2905L265.541 71.6919L270.789 78.2718L270.038 78.8704C269.852 78.6369 269.561 78.3232 269.165 77.9295C268.782 77.5524 268.355 77.2386 267.882 76.988L252.496 89.2582C252.635 89.7749 252.846 90.2616 253.128 90.7185C253.424 91.1921 253.665 91.5456 253.851 91.7791L253.1 92.3776L247.853 85.7978Z" fill="white"/>
<path d="M281.117 122.198C282.781 121.818 284.389 121.768 285.941 122.049C287.497 122.35 288.921 122.933 290.213 123.798C291.504 124.663 292.605 125.746 293.515 127.048C294.43 128.371 295.077 129.865 295.457 131.529C295.813 133.089 296.02 134.573 296.079 135.982C296.138 137.391 296.144 138.472 296.098 139.227L291.817 140.893L291.416 140C292.329 139.398 293.002 138.654 293.434 137.767C293.892 136.897 294.147 135.952 294.199 134.934C294.272 133.911 294.194 132.9 293.966 131.902C293.539 130.03 292.776 128.508 291.677 127.337C290.599 126.16 289.291 125.365 287.752 124.95C286.213 124.536 284.549 124.533 282.76 124.941C281.305 125.273 279.981 125.849 278.789 126.668C277.598 127.487 276.594 128.46 275.779 129.587C274.969 130.734 274.408 131.968 274.096 133.286C273.81 134.62 273.823 135.974 274.137 137.347C274.308 138.095 274.577 138.844 274.944 139.591C275.338 140.355 275.839 141.116 276.45 141.873L281.161 140.798C281.264 140.293 281.286 139.763 281.225 139.208C281.164 138.653 281.1 138.23 281.033 137.939L282.032 137.711L283.67 144.887L282.671 145.114C282.614 144.865 282.481 144.567 282.27 144.221C282.086 143.891 281.922 143.655 281.78 143.512L277.257 144.545C277.125 144.641 277.006 144.788 276.898 144.988C276.812 145.183 276.743 145.362 276.693 145.527L275.601 145.776C275.36 144.912 275.055 144.052 274.684 143.196C274.339 142.355 273.985 141.473 273.621 140.55C273.257 139.626 272.949 138.614 272.697 137.511C272.132 135.036 272.1 132.735 272.599 130.608C273.098 128.481 274.064 126.674 275.497 125.187C276.956 123.716 278.829 122.72 281.117 122.198Z" fill="white"/>
<path d="M270.366 193.599L292.157 183.836L275.435 180.019C275.118 180.45 274.869 180.918 274.688 181.424C274.502 181.95 274.376 182.359 274.31 182.65L273.374 182.437L275.026 175.199L275.962 175.412C275.895 175.704 275.831 176.127 275.77 176.682C275.709 177.237 275.731 177.767 275.834 178.272L295.021 182.651C295.333 182.241 295.582 181.773 295.768 181.246C295.954 180.72 296.08 180.311 296.147 180.02L297.082 180.233L295.95 185.194L275.468 194.403L291.503 198.063C291.816 197.653 292.065 197.184 292.251 196.658C292.436 196.131 292.562 195.722 292.629 195.431L293.565 195.645L291.913 202.883L290.977 202.669C291.043 202.378 291.107 201.955 291.168 201.4C291.224 200.866 291.203 200.336 291.104 199.81L270.046 195.003L270.366 193.599Z" fill="white"/>
<path d="M255.444 225.581L256.195 226.18C256.009 226.413 255.768 226.767 255.472 227.241C255.176 227.714 254.965 228.201 254.839 228.701L270.226 240.971C270.685 240.737 271.113 240.423 271.509 240.03C271.905 239.636 272.196 239.322 272.382 239.089L273.133 239.687L263.855 251.321L260.353 248.733L260.941 247.892C261.238 248.102 261.62 248.324 262.087 248.56C262.54 248.812 263.017 249.002 263.517 249.127L268.365 243.048L261.785 237.801L257.615 243.03C257.882 243.379 258.161 243.697 258.451 243.983C258.742 244.269 258.987 244.492 259.187 244.651L258.549 245.452L253.545 241.462L254.183 240.661C254.4 240.834 254.705 241.05 255.099 241.309C255.509 241.582 255.942 241.791 256.399 241.937L260.509 236.783L253.229 230.977L247.981 237.557C248.092 238 248.266 238.466 248.503 238.956C248.727 239.462 248.945 239.908 249.155 240.294C249.382 240.693 249.539 240.941 249.626 241.038L248.787 241.679L245.668 237.841L255.444 225.581Z" fill="white"/>
<path d="M219.408 259.35L219.825 260.215C219.555 260.344 219.185 260.558 218.713 260.857C218.241 261.155 217.84 261.502 217.51 261.898L226.076 279.687C226.564 279.618 227.048 279.467 227.528 279.236C227.99 279.014 228.35 278.828 228.61 278.68L229.113 279.503C227.919 280.267 226.719 281.023 225.516 281.768C224.293 282.523 223.143 283.159 222.067 283.678C220.779 284.298 219.542 284.704 218.356 284.896C217.179 285.108 216.107 284.996 215.141 284.562C214.174 284.128 213.385 283.277 212.774 282.008C212.469 281.374 212.293 280.641 212.249 279.811C212.194 279.008 212.34 278.133 212.688 277.184C213.017 276.244 213.618 275.28 214.492 274.291C213.85 273.842 213.103 273.349 212.252 272.812C211.402 272.274 210.522 271.751 209.614 271.241C208.705 270.732 207.844 270.27 207.029 269.857C206.262 269.493 205.56 269.192 204.924 268.953C204.269 268.724 203.585 268.58 202.87 268.522C202.136 268.473 201.277 268.484 200.293 268.555L200.15 267.594C201.522 267.052 202.677 266.697 203.615 266.529C204.533 266.371 205.368 266.36 206.12 266.495C206.862 266.659 207.631 266.904 208.428 267.23C208.902 267.428 209.494 267.747 210.203 268.187C210.912 268.627 211.654 269.11 212.428 269.637C213.212 270.183 213.972 270.705 214.709 271.202C215.427 271.709 216.031 272.128 216.523 272.46C216.851 272.207 217.198 271.945 217.565 271.674C217.941 271.422 218.34 271.17 218.764 270.919L215.001 263.106C214.467 263.127 213.926 263.233 213.379 263.425C212.833 263.618 212.415 263.783 212.127 263.922L211.71 263.057L219.408 259.35ZM219.264 271.957C217.812 272.727 216.716 273.598 215.976 274.57C215.217 275.551 214.764 276.527 214.616 277.498C214.468 278.469 214.579 279.339 214.949 280.108C215.495 281.242 216.214 281.997 217.105 282.373C218.006 282.768 219.021 282.836 220.151 282.576C221.271 282.344 222.433 281.832 223.637 281.039L219.264 271.957Z" fill="white"/>
</svg>
