<svg width="70" height="70" viewBox="0 0 70 70" fill="none" xmlns="http://www.w3.org/2000/svg">
<circle cx="35" cy="35" r="35" fill="white"/>
<path d="M35.232 47.432C28.848 47.432 25.488 44.216 25.488 41.96C25.488 40.808 26.256 40.184 27.36 40.184C30.336 40.184 28.8 46.04 35.232 46.04C38.304 46.04 40.704 44.552 40.704 41.816C40.704 34.76 26.016 39.512 26.016 30.056C26.016 26.36 29.76 23.48 35.04 23.48C40.992 23.48 44.4 26.552 44.4 29.144C44.4 30.104 43.632 30.824 42.672 30.824C39.936 30.824 41.136 24.968 35.232 24.968C32.448 24.968 30.288 26.744 30.288 29.144C30.288 36.056 44.928 31.352 44.928 40.952C44.928 44.552 41.184 47.432 35.232 47.432Z" fill="black"/>
</svg>
